<svg width="70" height="70" viewBox="0 0 70 70" fill="none" xmlns="http://www.w3.org/2000/svg">
<circle cx="35" cy="35" r="35" fill="#6D594A"/>
<path d="M47.6908 39.1696C45.9071 41.4565 43.0176 42.9459 39.762 42.9459H35.194C33.616 42.9459 32.2722 42.0108 31.7633 40.7019C31.1352 40.527 30.5193 40.3 29.9182 40.0212C28.6453 39.4309 27.4896 38.6311 26.4722 37.6403C19.8726 38.9937 14.9333 44.4828 14.9333 51.0496V51.908C14.9333 53.0879 15.9581 54.0445 17.2222 54.0445H52.7334C53.9975 54.0445 55.0222 53.0879 55.0222 51.908V51.0496C55.0221 45.9767 52.0744 41.5468 47.6908 39.1696Z" fill="#CBC7A4"/>
<path d="M24.0394 33.2366C25.0231 33.2366 25.8794 32.7277 26.3229 31.9767C26.3346 32.0064 26.3465 32.0359 26.3584 32.0655C26.3619 32.0743 26.3655 32.0832 26.369 32.0921C27.4096 34.649 29.4345 36.7924 32.1045 37.7289C32.7502 36.7712 33.8921 36.1342 35.194 36.1342H39.762C40.2177 36.1342 40.6418 36.0142 41.0136 35.8202C41.6379 35.4943 42.1994 34.6675 42.4894 34.2293C42.9533 33.528 43.3128 32.7852 43.6316 31.9754C43.8107 32.2791 44.0571 32.5432 44.3522 32.7502V33.7958C44.3522 36.1583 42.2931 38.0805 39.7619 38.0805H35.1939C34.3304 38.0805 33.6302 38.7341 33.6302 39.5402C33.6302 40.3463 34.3304 40.9998 35.1939 40.9998H39.7619C44.0175 40.9998 47.4796 37.7681 47.4796 33.7958V32.7502C48.1126 32.3063 48.5221 31.5998 48.5221 30.804V26.4027V24.7149C48.5221 23.9027 48.0954 23.184 47.4401 22.7422C46.9319 16.7395 41.5367 12 34.9777 12C28.4185 12 23.0234 16.7395 22.5152 22.7421C21.86 23.1839 21.4332 23.9027 21.4332 24.7148V30.8038C21.4332 32.1512 22.6059 33.2366 24.0394 33.2366ZM34.9777 14.9194C39.8332 14.9194 43.8381 18.383 44.3062 22.8024C43.9989 23.0281 43.7471 23.3165 43.5737 23.6474C42.0982 20.054 38.8044 17.5522 34.9776 17.5522C31.0682 17.5522 27.8273 20.14 26.3872 23.633C26.3853 23.6378 26.3834 23.6426 26.3814 23.6475C26.208 23.3166 25.9563 23.0282 25.649 22.8025C26.1174 18.383 30.1221 14.9194 34.9777 14.9194Z" fill="#CBC7A4"/>
</svg>
