<svg width="70" height="70" viewBox="0 0 70 70" fill="none" xmlns="http://www.w3.org/2000/svg">
<circle cx="35" cy="35" r="35" fill="#CBC7A4"/>
<path d="M35 10C21.2598 10 10 21.3575 10 35.0977C10 48.7581 21.1572 60 35 60C48.8256 60 60 48.7749 60 35.0977C60 21.3575 48.7402 10 35 10ZM39.3945 56.6309C37.9884 56.9238 36.4942 57.0703 35 57.0703C33.5058 57.0703 32.0116 56.9238 30.6055 56.6309V49.7755C30.6055 48.1348 31.0449 47.5488 31.6309 46.7577C31.9292 46.4166 32.1092 46.1107 33.447 44.0919L31.1914 43.7402C25.3904 42.8907 23.1054 39.8729 22.1971 37.5291C21.0252 34.3946 21.6405 30.4685 23.7501 27.9787C24.0724 27.5976 24.336 26.9529 24.1018 26.2792C23.662 24.9315 23.7207 22.793 24.0137 21.9724C25.567 22.1944 27.1642 23.3072 28.4963 24.1113C29.1101 24.4695 29.4321 24.3749 29.7266 24.4043C30.797 24.1815 32.4667 23.6425 35.0294 23.6425C36.6113 23.6425 38.2814 23.8767 39.9221 24.3456C40.2155 24.3387 40.687 24.5882 41.5041 24.1113C42.8964 23.2629 44.4395 22.1883 45.9863 21.9724C46.2793 22.793 46.338 24.9315 45.8986 26.2792C45.664 26.9529 45.9276 27.5976 46.2503 27.9787C48.3595 30.4689 48.9748 34.3946 47.8029 37.5291C46.8946 39.8729 44.6096 42.8907 38.8086 43.7402L36.553 44.0919C37.9358 46.1786 38.0815 46.4288 38.3695 46.7577C38.9551 47.5488 39.3945 48.1348 39.3945 49.7755V56.6309ZM42.3242 55.7813V49.7755C42.3242 48.1054 41.9725 46.9923 41.5037 46.1717C45.957 44.9709 49.1212 42.3338 50.5273 38.5545C52.0216 34.5705 51.3479 29.8242 48.8573 26.5428C49.2971 24.5802 49.2971 21.4452 48.2423 19.9804C47.7735 19.3361 47.1288 18.9844 46.3087 18.9844C46.2793 18.9844 46.2793 18.9844 46.2793 18.9844C44.0076 19.1072 42.2197 20.2512 40.3028 21.4159C38.545 20.947 36.7578 20.7128 34.9706 20.7128C33.1544 20.7128 31.3379 20.9764 29.7269 21.4159C27.709 20.199 25.9382 19.1042 23.6036 18.9844C22.8712 18.9844 22.2265 19.3361 21.7577 19.9804C20.7033 21.4452 20.7033 24.5802 21.1427 26.5428C18.6521 29.8242 17.9784 34.5995 19.4727 38.5545C20.8788 42.3338 24.043 44.9709 28.4963 46.1717C28.1328 46.8076 27.8452 47.6282 27.7319 48.7386C26.8324 49.0488 26.0522 49.1499 25.3267 48.9366C24.5615 48.7104 23.9652 48.1996 23.4472 47.3283C22.2837 45.3737 20.302 43.778 18.0456 43.9855L18.3031 46.9038C19.3479 46.808 20.3878 47.9135 20.928 48.8248C21.8191 50.3255 23.0196 51.3097 24.497 51.7461C25.5937 52.0692 26.5962 52.0616 27.6758 51.8312V55.7813C19.1503 52.7929 12.9297 44.6485 12.9297 35.0977C12.9297 22.9688 22.8712 12.9297 35 12.9297C47.1288 12.9297 57.0703 22.9688 57.0703 35.0977C57.0703 44.6485 50.8497 52.7929 42.3242 55.7813Z" fill="#6D594A"/>
</svg>
