<svg width="70" height="70" viewBox="0 0 70 70" fill="none" xmlns="http://www.w3.org/2000/svg">
<circle cx="35" cy="35" r="35" fill="#CBC7A4"/>
<path d="M54.0449 18.3613H16.9551C14.7742 18.3613 13 20.1356 13 22.3164V48.6836C13 50.8644 14.7742 52.6387 16.9551 52.6387H54.0449C56.2258 52.6387 58 50.8644 58 48.6836V22.3164C58 20.1356 56.2258 18.3613 54.0449 18.3613ZM48.3153 20.998L35.5 30.5592L22.6847 20.998H48.3153ZM16.9551 20.998H18.2753L34.7116 33.2608C34.9455 33.4353 35.2227 33.5225 35.5 33.5225C35.7773 33.5225 36.0545 33.4353 36.2884 33.2608L52.7247 20.998H54.0449C54.7713 20.998 55.3623 21.5886 55.3632 22.3148L35.5 37.1504L15.6368 22.3148C15.6377 21.5886 16.2287 20.998 16.9551 20.998ZM34.7111 39.8522C34.9451 40.0269 35.2225 40.1143 35.5 40.1143C35.7775 40.1143 36.0549 40.0269 36.2889 39.8522L50.0898 29.5444V50.002H20.9102V29.5444L34.7111 39.8522ZM15.6367 48.6836V25.6057L18.2734 27.5751V50.002H16.9551C16.2281 50.002 15.6367 49.4105 15.6367 48.6836ZM54.0449 50.002H52.7266V27.5751L55.3633 25.6057V48.6836C55.3633 49.4105 54.7719 50.002 54.0449 50.002Z" fill="#6D594A"/>
</svg>
