<svg width="70" height="70" viewBox="0 0 70 70" fill="none" xmlns="http://www.w3.org/2000/svg">
<circle cx="35" cy="35" r="35" fill="#CBC7A4"/>
<g clip-path="url(#clip0)">
<path d="M12.7781 33.9925L23.7825 39.4769C24.2081 39.6869 24.7106 39.6719 25.1175 39.4337L34.9125 33.7394L28.9837 38.9931C28.6819 39.2612 28.5094 39.6437 28.5094 40.0469V52.8437C28.5094 54.1937 30.2325 54.7619 31.0406 53.6894L35.7975 47.365L47.5612 54.0644C48.3862 54.5387 49.4437 54.0625 49.635 53.1194L56.9719 16.5569C57.1912 15.4581 56.0981 14.5619 55.0819 14.9706L12.8944 31.4237C11.7619 31.8662 11.6887 33.4506 12.7781 33.9925ZM53.7094 18.5256L47.2612 50.6575L36.1144 44.3087C35.5069 43.9619 34.725 44.1156 34.2937 44.6856L31.3219 48.6362V40.6787L47.355 26.4737C48.6244 25.3506 47.1656 23.3537 45.7162 24.205L24.36 36.6212L16.875 32.8919L53.7094 18.5256Z" fill="#6D594A"/>
</g>
<defs>
<clipPath id="clip0">
<rect width="45" height="45" fill="white" transform="translate(12 13)"/>
</clipPath>
</defs>
</svg>
