<svg width="70" height="70" viewBox="0 0 70 70" fill="none" xmlns="http://www.w3.org/2000/svg">
<circle cx="35" cy="35" r="35" fill="#CBC7A4"/>
<g clip-path="url(#clip0)">
<path d="M34.7719 49.5625C41.2819 49.5625 38.9606 45.4412 39.4631 44.2563C39.4556 43.3713 39.4481 42.52 39.4781 42.0025C39.8906 42.1188 40.8637 42.6119 42.8737 44.5656C45.9769 47.6969 46.77 49.5625 49.2769 49.5625H53.8912C55.3537 49.5625 56.115 48.9569 56.4956 48.4487C56.8631 47.9575 57.2231 47.095 56.8294 45.7525C55.8 42.52 49.7962 36.9381 49.4231 36.3494C49.4794 36.2406 49.5694 36.0962 49.6162 36.0212H49.6125C50.7975 34.4556 55.32 27.6794 55.9856 24.9681C55.9875 24.9644 55.9894 24.9588 55.9894 24.9531C56.3494 23.7156 56.0194 22.9131 55.6781 22.4594C55.1644 21.7806 54.3469 21.4375 53.2425 21.4375H48.6281C47.0831 21.4375 45.9113 22.2156 45.3188 23.635C44.3269 26.1569 41.5406 31.3431 39.4519 33.1788C39.3881 30.5781 39.4312 28.5925 39.465 27.1169C39.5325 24.2387 39.75 21.4375 36.7631 21.4375H29.5106C27.6394 21.4375 25.8488 23.4812 27.7875 25.9075C29.4825 28.0337 28.3969 29.2187 28.7625 35.1175C27.3375 33.5894 24.8025 29.4625 23.01 24.1881C22.5075 22.7613 21.7463 21.4394 19.6031 21.4394H14.9887C13.1175 21.4394 12 22.4594 12 24.1675C12 28.0037 20.4919 49.5625 34.7719 49.5625ZM19.6031 24.2519C20.01 24.2519 20.0512 24.2519 20.3531 25.1088C22.1888 30.5144 26.3063 38.5131 29.3138 38.5131C31.5731 38.5131 31.5731 36.1975 31.5731 35.3256L31.5712 28.3844C31.4475 26.0875 30.6112 24.9437 30.0619 24.25L36.6394 24.2575C36.6431 24.2894 36.6019 31.9356 36.6581 33.7881C36.6581 36.4187 38.7469 37.9263 42.0075 34.6263C45.4481 30.7431 47.8275 24.9381 47.9231 24.7019C48.0638 24.3644 48.1856 24.25 48.6281 24.25H53.2425H53.2612C53.2594 24.2556 53.2594 24.2612 53.2575 24.2669C52.8356 26.2356 48.6712 32.5094 47.2781 34.4575C47.2556 34.4875 47.235 34.5194 47.2144 34.5513C46.6012 35.5525 46.1025 36.6587 47.2988 38.215H47.3006C47.4094 38.3463 47.6925 38.6537 48.105 39.0812C49.3875 40.405 53.7862 44.9312 54.1763 46.7312C53.9175 46.7725 53.6362 46.7425 49.2769 46.7519C48.3488 46.7519 47.6231 45.3644 44.8537 42.5706C42.3637 40.1481 40.7475 39.1581 39.2756 39.1581C36.4181 39.1581 36.6262 41.4775 36.6525 44.2825C36.6619 47.3237 36.6431 46.3619 36.6637 46.5531C36.4969 46.6188 36.0188 46.75 34.7719 46.75C22.875 46.75 15.1275 27.8669 14.8294 24.2575C14.9325 24.2481 16.3519 24.2537 19.6031 24.2519Z" fill="#6D594A"/>
</g>
<defs>
<clipPath id="clip0">
<rect width="45" height="45" fill="white" transform="translate(12 13)"/>
</clipPath>
</defs>
</svg>
